<?xml version="1.0" encoding="iso-8859-1"?>
<!-- Generator: Adobe Illustrator 19.0.0, SVG Export Plug-In . SVG Version: 6.00 Build 0)  -->
<svg version="1.1" id="Layer_1" xmlns="http://www.w3.org/2000/svg" xmlns:xlink="http://www.w3.org/1999/xlink" x="0px" y="0px"
	 viewBox="0 0 475 475" style="enable-background:new 0 0 475 475;" xml:space="preserve">
<g transform="translate(0 -540.36)">
	<g>
		<g>
			<path d="M351.9,812.16H279c-4.1,0-7.5,3.4-7.5,7.5s3.4,7.5,7.5,7.5h72.9c4.2,0,7.5-3.4,7.5-7.5S356,812.16,351.9,812.16z"/>
			<path d="M467.5,580.16L467.5,580.16l-382.4-2.3c-2,0-4,0.8-5.4,2.3l-77.6,80.4c-1.3,1.4-2.1,3.3-2.1,5.2v304.6
				c0,4.1,3.4,7.5,7.5,7.5H393c2.1,0,4-0.8,5.4-2.3l74.5-78.1c1.3-1.4,2.1-3.2,2.1-5.2v-304.6C475,583.56,471.7,580.26,467.5,580.16
				z M382.4,962.86H15v-291.9h367.4v102.1H240.2c-4.1,0-7.5,3.4-7.5,7.5v78.1c0,4.1,3.4,7.5,7.5,7.5h142.2V962.86z M421.2,929.96
				l-23.8,24.9v-93l23.8-23.2V929.96z M460,889.26l-23.8,24.9v-90.2l23.8-23.2V889.26z M460,779.76l-73.1,71.4H247.7v-63.1h142.2
				c2,0,4-0.8,5.4-2.3l64.7-67.1V779.76z M460,697.16l-23.8,24.7v-97.4c0-4.1-3.4-7.5-7.5-7.5H116.1c-4.1,0-7.5,3.4-7.5,7.5
				s3.4,7.5,7.5,7.5h305.1v104.2c0,0.4,0,0.8,0.1,1.2l-23.9,24.8v-98.6c0-4.1-3.4-7.5-7.5-7.5H27.4l60.8-63.2l371.8,2.3V697.16z"/>
		</g>
	</g>
</g>
<g>
</g>
<g>
</g>
<g>
</g>
<g>
</g>
<g>
</g>
<g>
</g>
<g>
</g>
<g>
</g>
<g>
</g>
<g>
</g>
<g>
</g>
<g>
</g>
<g>
</g>
<g>
</g>
<g>
</g>
</svg>
