<?xml version="1.0" encoding="iso-8859-1"?>
<!-- Generator: Adobe Illustrator 19.0.0, SVG Export Plug-In . SVG Version: 6.00 Build 0)  -->
<svg version="1.1" id="Layer_1" xmlns="http://www.w3.org/2000/svg" xmlns:xlink="http://www.w3.org/1999/xlink" x="0px" y="0px"
	 viewBox="0 0 511.565 511.565" style="enable-background:new 0 0 511.565 511.565;" xml:space="preserve">
<g>
	<g>
		<g>
			<path d="M426.453,302.605c0-4.71,3.814-8.533,8.533-8.533h76.578c-0.956-28.928-6.707-56.653-16.529-82.406l-38.007,18.15
				c-1.186,0.563-2.441,0.836-3.678,0.836c-3.183,0-6.238-1.792-7.697-4.864c-2.039-4.25-0.23-9.344,4.019-11.375l38.733-18.492
				c-11.81-25.651-27.733-49.007-46.933-69.265l-28.578,30.899c-1.681,1.818-3.968,2.739-6.263,2.739
				c-2.074,0-4.156-0.751-5.794-2.27c-3.456-3.2-3.669-8.602-0.469-12.066l28.971-31.317
				c-19.311-17.843-41.361-32.742-65.451-44.015l-17.545,38.869c-1.425,3.166-4.531,5.035-7.782,5.035
				c-1.169,0-2.364-0.247-3.499-0.759c-4.301-1.937-6.212-6.989-4.275-11.29l17.399-38.545
				c-26.163-10.172-54.391-16.137-83.866-17.109v76.578c0,4.719-3.823,8.533-8.533,8.533c-4.719,0-8.533-3.814-8.533-8.533V46.827
				c-27.648,0.913-54.204,6.161-78.976,15.198l15.002,40.021c1.656,4.412-0.58,9.335-4.992,10.991
				c-0.99,0.358-1.997,0.538-2.995,0.538c-3.456,0-6.707-2.116-7.996-5.538l-14.831-39.569
				c-26.47,11.725-50.577,27.793-71.441,47.317l29.943,29.943c3.337,3.328,3.337,8.73,0,12.066c-1.664,1.664-3.849,2.5-6.033,2.5
				c-2.185,0-4.369-0.836-6.033-2.5l-29.943-29.943c-18.347,19.601-33.647,42.061-45.15,66.654l38.869,17.545
				c4.292,1.937,6.204,6.989,4.267,11.281c-1.425,3.157-4.531,5.035-7.782,5.035c-1.178,0-2.364-0.247-3.507-0.76l-38.545-17.399
				C6.946,236.369,0.973,264.597,0,294.072h76.587c4.71,0,8.533,3.823,8.533,8.533c0,4.719-3.823,8.533-8.533,8.533H0.137
				c0.905,28.075,6.238,55.27,15.855,80.964l38.835-16.836c4.309-1.86,9.344,0.111,11.221,4.446
				c1.869,4.318-0.111,9.344-4.437,11.213L22.4,407.915c8.576,18.91,19.49,36.89,32.742,53.598c1.621,2.039,4.079,3.226,6.69,3.226
				h387.908c2.603,0,5.06-1.186,6.682-3.226c12.544-15.821,22.895-32.811,31.258-50.603l-38.827-17.758
				c-4.284-1.963-6.178-7.023-4.216-11.307c1.963-4.284,7.04-6.178,11.315-4.216l38.4,17.57
				c10.351-26.607,16.128-54.852,17.075-84.062h-76.442C430.268,311.138,426.453,307.324,426.453,302.605z M348.433,221.666
				l-24.329,40.55c-8.499,14.157-15.804,29.491-22.861,44.314c-2.355,4.932-4.71,9.873-7.108,14.788
				c-7.296,14.933-22.289,23.936-38.46,23.936c-3.243,0-6.545-0.367-9.83-1.109c-15.633-3.567-28.032-15.966-31.599-31.599
				c-4.489-19.669,4.898-39.535,22.827-48.29c4.915-2.406,9.856-4.762,14.797-7.117c14.822-7.057,30.157-14.362,44.314-22.852
				l40.542-24.329c3.362-2.005,7.663-1.476,10.428,1.28C349.918,214.012,350.447,218.304,348.433,221.666z"/>
			<path d="M259.209,272.55c-4.89,2.33-9.779,4.659-14.643,7.04c-10.778,5.257-16.401,17.254-13.679,29.158
				c2.082,9.131,9.626,16.674,18.748,18.748c11.921,2.722,23.902-2.901,29.167-13.67c2.381-4.864,4.71-9.754,7.031-14.635
				c7.236-15.189,14.72-30.899,23.637-45.756l6.767-11.281l-11.273,6.767C290.099,257.83,274.398,265.313,259.209,272.55z"/>
		</g>
	</g>
</g>
<g>
</g>
<g>
</g>
<g>
</g>
<g>
</g>
<g>
</g>
<g>
</g>
<g>
</g>
<g>
</g>
<g>
</g>
<g>
</g>
<g>
</g>
<g>
</g>
<g>
</g>
<g>
</g>
<g>
</g>
</svg>
