<?xml version="1.0" encoding="iso-8859-1"?>
<!-- Generator: Adobe Illustrator 19.0.0, SVG Export Plug-In . SVG Version: 6.00 Build 0)  -->
<svg version="1.1" id="Layer_1" xmlns="http://www.w3.org/2000/svg" xmlns:xlink="http://www.w3.org/1999/xlink" x="0px" y="0px"
	 viewBox="0 0 512 512" style="enable-background:new 0 0 512 512;" xml:space="preserve">
<g>
	<g>
		<path d="M256,93.091c-19.394,0-37.994,3.396-55.245,9.615c12.643,10.102,21.717,24.486,24.982,40.946
			c9.657-2.603,19.796-4.015,30.262-4.015c64.163,0,116.364,52.201,116.364,116.364S320.163,372.364,256,372.364
			S139.636,320.163,139.636,256c0-10.477,1.415-20.627,4.025-30.292c-16.457-3.264-30.855-12.313-40.957-24.948
			c-6.218,17.251-9.613,35.848-9.613,55.24c0,89.972,72.937,162.909,162.909,162.909S418.909,345.972,418.909,256
			S345.972,93.091,256,93.091z"/>
	</g>
</g>
<g>
	<g>
		<circle cx="157.262" cy="157.262" r="23.273"/>
	</g>
</g>
<g>
	<g>
		<path d="M256,0C114.842,0,0,114.842,0,256c0,45.774,12.088,88.776,33.223,125.997c2.526-3.806,5.461-7.419,8.813-10.771
			c8.187-8.186,18.05-14.085,28.815-17.385C55.346,324.62,46.545,291.32,46.545,256c0-115.493,93.961-209.455,209.455-209.455
			S465.455,140.507,465.455,256S371.493,465.455,256,465.455c-35.34,0-68.656-8.811-97.888-24.331
			c-3.227,10.56-8.999,20.502-17.337,28.84c-3.326,3.326-6.929,6.271-10.755,8.822C167.238,499.915,210.232,512,256,512
			c141.158,0,256-114.842,256-256S397.158,0,256,0z"/>
	</g>
</g>
<g>
	<g>
		<path d="M107.861,404.139c-4.544-4.544-10.501-6.817-16.457-6.817c-5.956,0-11.913,2.271-16.455,6.817
			c-9.089,9.089-9.089,23.824,0,32.912c4.544,4.544,10.501,6.817,16.455,6.817s11.913-2.273,16.457-6.817
			C116.95,427.962,116.95,413.227,107.861,404.139z"/>
	</g>
</g>
<g>
	<g>
		<circle cx="256" cy="256" r="69.818"/>
	</g>
</g>
<g>
</g>
<g>
</g>
<g>
</g>
<g>
</g>
<g>
</g>
<g>
</g>
<g>
</g>
<g>
</g>
<g>
</g>
<g>
</g>
<g>
</g>
<g>
</g>
<g>
</g>
<g>
</g>
<g>
</g>
</svg>
