<?xml version="1.0" encoding="iso-8859-1"?>
<!-- Generator: Adobe Illustrator 17.1.0, SVG Export Plug-In . SVG Version: 6.00 Build 0)  -->
<!DOCTYPE svg PUBLIC "-//W3C//DTD SVG 1.1//EN" "http://www.w3.org/Graphics/SVG/1.1/DTD/svg11.dtd">
<svg version="1.1" id="Capa_1" xmlns="http://www.w3.org/2000/svg" xmlns:xlink="http://www.w3.org/1999/xlink" x="0px" y="0px"
	 viewBox="0 0 442 442" style="enable-background:new 0 0 442 442;" xml:space="preserve">
<path d="M441.655,289.454c-1.087-4.487-5.104-7.647-9.72-7.647h-27.01l31.583-16.242c4.105-2.111,6.232-6.759,5.146-11.245
	c-1.087-4.487-5.104-7.647-9.72-7.647h-51.2l19.811-22.188c0.013-0.014,0.022-0.031,0.035-0.045
	c0.624-0.706,1.128-1.479,1.519-2.294c0.023-0.047,0.046-0.094,0.068-0.142c0.371-0.808,0.628-1.653,0.772-2.515
	c0.015-0.088,0.028-0.177,0.041-0.265c0.058-0.417,0.099-0.836,0.105-1.256c0-0.009,0.001-0.018,0.002-0.027
	c0.004-0.418-0.026-0.835-0.074-1.251c-0.013-0.115-0.029-0.228-0.046-0.342c-0.058-0.386-0.133-0.771-0.236-1.15
	c-0.009-0.034-0.014-0.069-0.024-0.103c-0.115-0.407-0.266-0.805-0.434-1.198c-0.022-0.052-0.034-0.106-0.057-0.158
	c-0.026-0.057-0.062-0.107-0.088-0.164c-0.155-0.33-0.327-0.652-0.52-0.967c-0.039-0.063-0.072-0.131-0.112-0.194
	c-0.211-0.327-0.451-0.642-0.704-0.948c-0.112-0.135-0.23-0.264-0.348-0.393c-0.073-0.079-0.137-0.163-0.213-0.241l-90.57-92.379
	L400.545,16.66c2.626-2.94,3.278-7.148,1.668-10.746C400.603,2.315,397.029,0,393.086,0H107.184c-2.849,0-5.562,1.215-7.459,3.34
	L2.604,112.112c-0.029,0.032-0.05,0.069-0.078,0.102c-0.29,0.333-0.56,0.677-0.798,1.037c-0.02,0.03-0.035,0.061-0.055,0.091
	c-0.222,0.342-0.416,0.696-0.592,1.057c-0.039,0.081-0.078,0.161-0.116,0.243c-0.357,0.786-0.606,1.607-0.748,2.446
	c-0.018,0.103-0.033,0.206-0.048,0.309c-0.055,0.4-0.093,0.801-0.1,1.204c0,0.021-0.003,0.042-0.004,0.063
	c-0.005,0.42,0.026,0.84,0.075,1.258c0.012,0.105,0.027,0.21,0.042,0.315c0.061,0.414,0.14,0.826,0.253,1.232
	c0.002,0.006,0.003,0.013,0.004,0.019c0.12,0.427,0.278,0.845,0.456,1.257c0.016,0.037,0.025,0.077,0.041,0.114
	c0.018,0.041,0.045,0.077,0.063,0.118c0.182,0.392,0.382,0.776,0.617,1.146c0.006,0.009,0.011,0.019,0.016,0.028
	c0.229,0.359,0.49,0.703,0.77,1.036c0.075,0.09,0.154,0.175,0.232,0.262c0.097,0.107,0.185,0.22,0.287,0.324l90.566,92.375
	L2.604,319.937c-0.031,0.034-0.053,0.074-0.083,0.108c-0.282,0.324-0.547,0.662-0.786,1.021c-0.028,0.042-0.05,0.085-0.077,0.127
	c-0.211,0.328-0.4,0.669-0.572,1.021c-0.04,0.082-0.08,0.162-0.118,0.245c-0.18,0.394-0.34,0.797-0.468,1.217
	c-0.002,0.007-0.003,0.015-0.006,0.022c-0.119,0.394-0.207,0.801-0.278,1.214c-0.018,0.105-0.034,0.21-0.048,0.316
	c-0.049,0.354-0.079,0.713-0.09,1.078c-0.002,0.074-0.011,0.147-0.011,0.221c0,0.023-0.003,0.046-0.003,0.069
	c0,0.407,0.031,0.806,0.079,1.2c0.011,0.095,0.029,0.188,0.043,0.283c0.055,0.366,0.128,0.726,0.221,1.078
	c0.02,0.075,0.036,0.15,0.058,0.225c0.124,0.429,0.275,0.846,0.453,1.25c0.007,0.017,0.011,0.034,0.018,0.051
	c0.017,0.038,0.04,0.07,0.058,0.107c0.167,0.36,0.354,0.707,0.561,1.042c0.043,0.069,0.082,0.14,0.126,0.208
	c0.231,0.355,0.483,0.695,0.756,1.017c0.058,0.069,0.121,0.132,0.181,0.2c0.234,0.262,0.481,0.51,0.741,0.746
	c0.072,0.065,0.142,0.132,0.215,0.195c0.318,0.271,0.651,0.524,1.002,0.755c0.058,0.038,0.118,0.071,0.176,0.107
	c0.315,0.198,0.642,0.377,0.98,0.54c0.076,0.037,0.15,0.075,0.226,0.109c0.394,0.178,0.798,0.334,1.217,0.46
	c0.036,0.011,0.073,0.018,0.108,0.028c0.375,0.108,0.761,0.191,1.153,0.256c0.104,0.017,0.208,0.034,0.313,0.048
	c0.43,0.057,0.866,0.096,1.312,0.096h285.902c0.38,0,0.756-0.025,1.129-0.067c0.117-0.013,0.232-0.038,0.349-0.056
	c0.256-0.039,0.51-0.08,0.761-0.137c0.136-0.031,0.269-0.072,0.403-0.109c0.229-0.063,0.455-0.129,0.678-0.208
	c0.138-0.049,0.273-0.104,0.409-0.158c0.215-0.086,0.427-0.179,0.635-0.28c0.069-0.033,0.141-0.057,0.209-0.092l65.496-33.683
	h24.589l-97.079,49.925H10.064c-5.523,0-10,4.478-10,10s4.477,10,10,10h285.902c1.591,0,3.158-0.38,4.573-1.107l65.496-33.683
	h24.588l-97.078,49.924H10.064c-5.523,0-10,4.478-10,10s4.477,10,10,10h285.902c1.591,0,3.158-0.38,4.573-1.107l65.495-33.682
	h24.589L293.545,422H10.064c-5.523,0-10,4.478-10,10s4.477,10,10,10h285.902c1.591,0,3.158-0.38,4.573-1.107l135.969-69.924
	c4.105-2.111,6.232-6.758,5.146-11.245c-1.087-4.487-5.104-7.647-9.72-7.647h-27.01l31.583-16.242
	c4.105-2.111,6.232-6.758,5.146-11.245c-1.087-4.487-5.104-7.647-9.72-7.647h-27.01l31.583-16.242
	C440.614,298.588,442.741,293.94,441.655,289.454z M390.624,266.672l-51.306,26.385l23.558-26.385H390.624z M32.399,316.597
	l79.263-88.772h135.897c5.522,0,10-4.478,10-10s-4.478-10-10-10H111.376l-77.504-79.052h36.692c5.523,0,10-4.478,10-10
	s-4.477-10-10-10H32.399L111.661,20h259.09l-79.263,88.772H110.553c-5.523,0-10,4.478-10,10s4.477,10,10,10h181.213l77.503,79.052
	h-81.723c-5.522,0-10,4.478-10,10s4.478,10,10,10h83.205l-79.263,88.772H32.399z"/>
<g>
</g>
<g>
</g>
<g>
</g>
<g>
</g>
<g>
</g>
<g>
</g>
<g>
</g>
<g>
</g>
<g>
</g>
<g>
</g>
<g>
</g>
<g>
</g>
<g>
</g>
<g>
</g>
<g>
</g>
</svg>
