<?xml version="1.0" encoding="iso-8859-1"?>
<!-- Generator: Adobe Illustrator 19.0.0, SVG Export Plug-In . SVG Version: 6.00 Build 0)  -->
<svg version="1.1" id="Capa_1" xmlns="http://www.w3.org/2000/svg" xmlns:xlink="http://www.w3.org/1999/xlink" x="0px" y="0px"
	 viewBox="0 0 60.025 60.025" style="enable-background:new 0 0 60.025 60.025;" xml:space="preserve">
<g>
	<g>
		<path d="M2.012,2.025h19v-2h-20c-0.6,0-1,0.4-1,1v16h2V2.025z"/>
		<path d="M58.012,58.025h-56v-31h-2v32c0,0.6,0.4,1,1,1h58c0.6,0,1-0.4,1-1v-32h-2V58.025z"/>
		<path d="M59.012,0.025h-20v2h19v15h2v-16C60.012,0.425,59.612,0.025,59.012,0.025z"/>
		<path d="M4.012,19.025L4.012,19.025l-0.6,0.5c-0.3,0.2-0.4,0.5-0.4,0.8v3.7c0,0.6,0.4,1,1,1h3v25h2v-25h42v12h-8v-4h-2v5
			c0,0.6,0.4,1,1,1h9v4h-9c-0.6,0-1,0.4-1,1v5h2v-4h8v5h2v-25h3c0.6,0,1-0.4,1-1v-3.7c0-0.3-0.1-0.6-0.4-0.8l-26-19.3
			c-0.4-0.3-0.8-0.3-1.2,0L4.012,19.025L4.012,19.025z M30.012,2.225l25,18.6v2.2h-3h-44h-3v-2h40v-2h-37.6L30.012,2.225z"/>
		<rect x="28.012" y="9.025" width="4" height="2"/>
		<rect x="25.012" y="13.025" width="10" height="2"/>
		<rect x="11.012" y="27.025" width="2" height="2"/>
		<rect x="15.012" y="27.025" width="2" height="2"/>
		<rect x="19.012" y="27.025" width="2" height="2"/>
		<rect x="23.012" y="27.025" width="2" height="2"/>
		<rect x="27.012" y="27.025" width="2" height="2"/>
		<rect x="31.012" y="27.025" width="2" height="2"/>
		<rect x="35.012" y="27.025" width="2" height="2"/>
		<rect x="39.012" y="27.025" width="2" height="2"/>
		<rect x="43.012" y="27.025" width="2" height="2"/>
		<rect x="47.012" y="27.025" width="2" height="2"/>
		<path d="M25.012,38.025h1c0.6,0,1-0.4,1-1v-4c0-0.6-0.4-1-1-1h-12c-0.6,0-1,0.4-1,1v4c0,0.6,0.4,1,1,1h1v7c0,0.6,0.4,1,1,1h3v5h2
			v-5h3c0.6,0,1-0.4,1-1V38.025z M15.012,34.025h10v2h-1h-8h-1V34.025z M23.012,44.025h-6v-6h6V44.025z"/>
		<rect x="19.012" y="52.025" width="2" height="2"/>
		<rect x="23.012" y="52.025" width="2" height="2"/>
		<rect x="27.012" y="52.025" width="2" height="2"/>
		<rect x="31.012" y="52.025" width="2" height="2"/>
		<rect x="35.012" y="52.025" width="2" height="2"/>
		<rect x="39.012" y="52.025" width="2" height="2"/>
		<rect x="43.012" y="52.025" width="2" height="2"/>
		<rect x="47.012" y="52.025" width="2" height="2"/>
		<rect x="51.012" y="52.025" width="2" height="2"/>
		<path d="M37.012,44.025c0-0.6-0.4-1-1-1h-5v2h4v4h2V44.025z"/>
		<path d="M37.012,33.025h-2v4h-4v2h5c0.6,0,1-0.4,1-1V33.025z"/>
		<path d="M9.012,6.025v-2h-4c-0.6,0-1,0.4-1,1v4h2v-3H9.012z"/>
		<path d="M56.012,9.025v-4c0-0.6-0.4-1-1-1h-4v2h3v3H56.012z"/>
	</g>
</g>
<g>
</g>
<g>
</g>
<g>
</g>
<g>
</g>
<g>
</g>
<g>
</g>
<g>
</g>
<g>
</g>
<g>
</g>
<g>
</g>
<g>
</g>
<g>
</g>
<g>
</g>
<g>
</g>
<g>
</g>
</svg>
