<?xml version="1.0" encoding="iso-8859-1"?>
<!-- Generator: Adobe Illustrator 19.0.0, SVG Export Plug-In . SVG Version: 6.00 Build 0)  -->
<svg version="1.1" id="Layer_1" xmlns="http://www.w3.org/2000/svg" xmlns:xlink="http://www.w3.org/1999/xlink" x="0px" y="0px"
	 viewBox="0 0 512 512" style="enable-background:new 0 0 512 512;" xml:space="preserve">
<g>
	<g>
		<g>
			<path d="M486.4,0H110.933c-14.114,0-25.6,11.486-25.6,25.6v25.6H25.6C11.486,51.2,0,62.686,0,76.8v409.6
				C0,500.514,11.486,512,25.6,512h324.267c14.114,0,25.6-11.486,25.6-25.6v-384c0-18.825,15.309-34.133,34.133-34.133
				c18.825,0,34.133,15.309,34.133,34.133v298.667c0,18.825,15.309,34.133,34.133,34.133S512,419.891,512,401.067V25.6
				C512,11.486,500.514,0,486.4,0z M42.667,102.4c0-4.71,3.814-8.533,8.533-8.533h85.333c4.719,0,8.533,3.823,8.533,8.533v204.8
				c0,4.71-3.814,8.533-8.533,8.533H51.2c-4.719,0-8.533-3.823-8.533-8.533V102.4z M110.933,460.8c0,4.71-3.814,8.533-8.533,8.533
				H51.2c-4.719,0-8.533-3.823-8.533-8.533v-34.133c0-4.71,3.814-8.533,8.533-8.533h51.2c4.719,0,8.533,3.823,8.533,8.533V460.8z
				 M110.933,384c0,4.71-3.814,8.533-8.533,8.533H51.2c-4.719,0-8.533-3.823-8.533-8.533v-34.133c0-4.71,3.814-8.533,8.533-8.533
				h51.2c4.719,0,8.533,3.823,8.533,8.533V384z M179.2,469.333h-34.133c-4.719,0-8.533-3.823-8.533-8.533s3.814-8.533,8.533-8.533
				H179.2c4.719,0,8.533,3.823,8.533,8.533S183.919,469.333,179.2,469.333z M196.267,435.2h-51.2c-4.719,0-8.533-3.823-8.533-8.533
				s3.814-8.533,8.533-8.533h51.2c4.719,0,8.533,3.823,8.533,8.533S200.986,435.2,196.267,435.2z M136.533,384
				c0-4.71,3.814-8.533,8.533-8.533H179.2c4.719,0,8.533,3.823,8.533,8.533s-3.814,8.533-8.533,8.533h-34.133
				C140.348,392.533,136.533,388.71,136.533,384z M196.267,358.4h-51.2c-4.719,0-8.533-3.823-8.533-8.533s3.814-8.533,8.533-8.533
				h51.2c4.719,0,8.533,3.823,8.533,8.533S200.986,358.4,196.267,358.4z M332.8,460.8c0,4.71-3.814,8.533-8.533,8.533h-85.333
				c-4.719,0-8.533-3.823-8.533-8.533V341.333c0-4.71,3.814-8.533,8.533-8.533h85.333c4.719,0,8.533,3.823,8.533,8.533V460.8z
				 M324.267,298.667H187.733c-4.719,0-8.533-3.823-8.533-8.533s3.814-8.533,8.533-8.533h136.533c4.719,0,8.533,3.823,8.533,8.533
				S328.986,298.667,324.267,298.667z M324.267,256H187.733c-4.719,0-8.533-3.823-8.533-8.533s3.814-8.533,8.533-8.533h136.533
				c4.719,0,8.533,3.823,8.533,8.533S328.986,256,324.267,256z M324.267,213.333H187.733c-4.719,0-8.533-3.823-8.533-8.533
				c0-4.71,3.814-8.533,8.533-8.533h136.533c4.719,0,8.533,3.823,8.533,8.533C332.8,209.51,328.986,213.333,324.267,213.333z
				 M324.267,170.667H187.733c-4.719,0-8.533-3.823-8.533-8.533c0-4.71,3.814-8.533,8.533-8.533h136.533
				c4.719,0,8.533,3.823,8.533,8.533C332.8,166.844,328.986,170.667,324.267,170.667z M324.267,128H187.733
				c-4.719,0-8.533-3.823-8.533-8.533s3.814-8.533,8.533-8.533h136.533c4.719,0,8.533,3.823,8.533,8.533S328.986,128,324.267,128z
				 M494.933,401.067c0,9.412-7.654,17.067-17.067,17.067s-17.067-7.654-17.067-17.067V102.4c0-28.237-22.963-51.2-51.2-51.2H102.4
				V25.6c0-4.702,3.823-8.533,8.533-8.533H486.4c4.71,0,8.533,3.831,8.533,8.533V401.067z"/>
			<path d="M409.6,93.867c-4.719,0-8.533,3.823-8.533,8.533v375.467c0,4.71,3.814,8.533,8.533,8.533s8.533-3.823,8.533-8.533V102.4
				C418.133,97.69,414.319,93.867,409.6,93.867z"/>
			<rect x="59.733" y="110.933" width="68.267" height="187.733"/>
			<rect x="59.733" y="435.2" width="34.133" height="17.067"/>
			<rect x="247.467" y="349.867" width="68.267" height="102.4"/>
			<rect x="59.733" y="358.4" width="34.133" height="17.067"/>
		</g>
	</g>
</g>
<g>
</g>
<g>
</g>
<g>
</g>
<g>
</g>
<g>
</g>
<g>
</g>
<g>
</g>
<g>
</g>
<g>
</g>
<g>
</g>
<g>
</g>
<g>
</g>
<g>
</g>
<g>
</g>
<g>
</g>
</svg>
