<?xml version="1.0" encoding="iso-8859-1"?>
<!-- Generator: Adobe Illustrator 18.0.0, SVG Export Plug-In . SVG Version: 6.00 Build 0)  -->
<!DOCTYPE svg PUBLIC "-//W3C//DTD SVG 1.1//EN" "http://www.w3.org/Graphics/SVG/1.1/DTD/svg11.dtd">
<svg version="1.1" id="Capa_1" xmlns="http://www.w3.org/2000/svg" xmlns:xlink="http://www.w3.org/1999/xlink" x="0px" y="0px"
	 viewBox="0 0 297 297" style="enable-background:new 0 0 297 297;" xml:space="preserve">
<g>
	<path d="M286.942,155.775h-27.718c1.93-1.828,3.139-4.408,3.139-7.275v-0.502c0-5.54-4.492-10.031-10.032-10.031
		c-5.54,0-10.032,4.491-10.032,10.031v0.502c0,2.867,1.209,5.447,3.138,7.275H148.5c-5.54,0-10.032,4.492-10.032,10.032v62.338
		c-1.828-1.928-4.407-3.137-7.273-3.137h-0.501c-5.54,0-10.032,4.492-10.032,10.032c0,5.54,4.492,10.032,10.032,10.032h0.501
		c2.866,0,5.445-1.209,7.273-3.136v45.03c0,5.54,4.492,10.032,10.032,10.032h138.442c5.54,0,10.032-4.492,10.032-10.032v-121.16
		C296.975,160.268,292.482,155.775,286.942,155.775z M276.91,175.84v66.48H158.532v-66.48H276.91z M158.532,276.935v-14.551H276.91
		v14.551H158.532z"/>
	<path d="M194.151,71.991h0.995c5.54,0,10.032-4.492,10.032-10.032c0-5.54-4.492-10.032-10.032-10.032h-0.995
		c-5.54,0-10.031,4.492-10.031,10.032C184.12,67.499,188.611,71.991,194.151,71.991z"/>
	<path d="M222.991,71.991h0.994c5.54,0,10.032-4.492,10.032-10.032c0-5.54-4.492-10.032-10.032-10.032h-0.994
		c-5.54,0-10.032,4.492-10.032,10.032C212.959,67.499,217.451,71.991,222.991,71.991z"/>
	<path d="M252.331,72.492c5.54,0,10.032-4.491,10.032-10.032v-0.501c0-5.54-4.492-10.032-10.032-10.032h-0.502
		c-5.54,0-10.032,4.492-10.032,10.032c0,2.897,1.229,5.509,3.194,7.34C246.822,71.264,249.433,72.492,252.331,72.492z"/>
	<path d="M262.363,90.311c0-5.541-4.492-10.032-10.032-10.032c-5.54,0-10.032,4.491-10.032,10.032v0.994
		c0,5.54,4.492,10.032,10.032,10.032c5.54,0,10.032-4.492,10.032-10.032V90.311z"/>
	<path d="M252.331,109.122c-5.54,0-10.032,4.492-10.032,10.032v0.994c0,5.54,4.492,10.032,10.032,10.032
		c5.54,0,10.032-4.492,10.032-10.032v-0.994C262.363,113.614,257.871,109.122,252.331,109.122z"/>
	<path d="M102.85,225.009h-0.995c-5.54,0-10.031,4.492-10.031,10.032c0,5.54,4.491,10.032,10.031,10.032h0.995
		c5.54,0,10.032-4.492,10.032-10.032C112.882,229.501,108.39,225.009,102.85,225.009z"/>
	<path d="M74.011,225.009h-0.994c-5.54,0-10.032,4.492-10.032,10.032c0,5.54,4.492,10.032,10.032,10.032h0.994
		c5.54,0,10.032-4.492,10.032-10.032C84.043,229.501,79.551,225.009,74.011,225.009z"/>
	<path d="M44.671,224.508c-5.54,0-10.032,4.491-10.032,10.032v0.501c0,5.54,4.492,10.032,10.032,10.032h0.502
		c5.54,0,10.032-4.492,10.032-10.032c0-2.897-1.229-5.509-3.194-7.34C50.18,225.736,47.569,224.508,44.671,224.508z"/>
	<path d="M54.703,176.852c0-5.54-4.492-10.032-10.032-10.032s-10.032,4.492-10.032,10.032v0.994c0,5.54,4.492,10.032,10.032,10.032
		s10.032-4.492,10.032-10.032V176.852z"/>
	<path d="M44.671,195.663c-5.54,0-10.032,4.492-10.032,10.032v0.994c0,5.541,4.492,10.032,10.032,10.032s10.032-4.491,10.032-10.032
		v-0.994C54.703,200.155,50.211,195.663,44.671,195.663z"/>
	<path d="M34.639,148.5v0.502c0,5.54,4.492,10.031,10.032,10.031s10.032-4.491,10.032-10.031V148.5c0-2.867-1.209-5.447-3.138-7.275
		H148.5c5.54,0,10.032-4.492,10.032-10.032V68.854c1.828,1.928,4.407,3.137,7.273,3.137h0.501c5.54,0,10.032-4.492,10.032-10.032
		c0-5.54-4.492-10.032-10.032-10.032h-0.501c-2.866,0-5.445,1.209-7.273,3.136v-45.03C158.532,4.492,154.04,0,148.5,0H10.058
		C4.518,0,0.025,4.492,0.025,10.032v121.16c0,5.54,4.492,10.032,10.032,10.032h27.72C35.848,143.053,34.639,145.633,34.639,148.5z
		 M138.468,20.065v66.479H20.09V20.065H138.468z M20.09,106.608h118.378v14.552H20.09V106.608z"/>
</g>
<g>
</g>
<g>
</g>
<g>
</g>
<g>
</g>
<g>
</g>
<g>
</g>
<g>
</g>
<g>
</g>
<g>
</g>
<g>
</g>
<g>
</g>
<g>
</g>
<g>
</g>
<g>
</g>
<g>
</g>
</svg>
