<?xml version="1.0" encoding="utf-8"?>
<!-- Generator: Adobe Illustrator 19.2.1, SVG Export Plug-In . SVG Version: 6.00 Build 0)  -->
<svg version="1.1" id="Capa_1" xmlns="http://www.w3.org/2000/svg" xmlns:xlink="http://www.w3.org/1999/xlink" x="0px" y="0px"
	 viewBox="0 0 60 60" style="enable-background:new 0 0 60 60;" xml:space="preserve">
<style type="text/css">
	.st0{display:none;}
</style>
<g>
	<path class="st0" d="M47,34c-3.8,0-7.3,1.6-9.8,4.3c-0.4,0.4-0.3,1,0.1,1.4c0.4,0.4,1,0.3,1.4-0.1c2.1-2.3,5.1-3.7,8.2-3.7
		c6.1,0,11,4.9,11,11s-4.9,11-11,11c-5,0-9.4-3.4-10.7-8H41v-2h-8v8h2v-3.7c2.1,4.5,6.8,7.7,12,7.7c7.2,0,13-5.8,13-13
		S54.2,34,47,34z"/>
	<path d="M0.8,21C0.3,21.7,0,22.6,0,23.6v11.8c0,1,0.3,1.9,0.8,2.6h31.8c3-4.8,8.3-8,14.4-8c5.2,0,9.8,2.3,13,6c0-0.2,0-0.4,0-0.6
		V23.6c0-1-0.3-1.9-0.8-2.6H0.8z M10.5,34C8,34,6,32,6,29.5S8,25,10.5,25s4.5,2,4.5,4.5S13,34,10.5,34z M34,29c-0.6,0-1-0.4-1-1
		s0.4-1,1-1s1,0.4,1,1S34.6,29,34,29z M38,29c-0.6,0-1-0.4-1-1s0.4-1,1-1s1,0.4,1,1S38.6,29,38,29z M42,29c-0.6,0-1-0.4-1-1
		s0.4-1,1-1s1,0.4,1,1S42.6,29,42,29z M46,29c-0.6,0-1-0.4-1-1s0.4-1,1-1s1,0.4,1,1S46.6,29,46,29z M50,29c-0.6,0-1-0.4-1-1
		s0.4-1,1-1s1,0.4,1,1S50.6,29,50,29z"/>
	<path d="M55.4,0H4.6C2.1,0,0,2.1,0,4.6v11.8c0,1,0.3,1.9,0.8,2.6h58.3c0.5-0.7,0.8-1.6,0.8-2.6V4.6C60,2.1,57.9,0,55.4,0z M10.5,15
		C8,15,6,13,6,10.5S8,6,10.5,6S15,8,15,10.5S13,15,10.5,15z M34,10c-0.6,0-1-0.4-1-1s0.4-1,1-1s1,0.4,1,1S34.6,10,34,10z M36,13
		c-0.6,0-1-0.4-1-1s0.4-1,1-1s1,0.4,1,1S36.6,13,36,13z M38,10c-0.6,0-1-0.4-1-1s0.4-1,1-1s1,0.4,1,1S38.6,10,38,10z M40,13
		c-0.6,0-1-0.4-1-1s0.4-1,1-1s1,0.4,1,1S40.6,13,40,13z M42,10c-0.6,0-1-0.4-1-1s0.4-1,1-1s1,0.4,1,1S42.6,10,42,10z M44,13
		c-0.6,0-1-0.4-1-1s0.4-1,1-1s1,0.4,1,1S44.6,13,44,13z M46,10c-0.6,0-1-0.4-1-1s0.4-1,1-1s1,0.4,1,1S46.6,10,46,10z M48,13
		c-0.6,0-1-0.4-1-1s0.4-1,1-1s1,0.4,1,1S48.6,13,48,13z M50,10c-0.6,0-1-0.4-1-1s0.4-1,1-1s1,0.4,1,1S50.6,10,50,10z M52,13
		c-0.6,0-1-0.4-1-1s0.4-1,1-1s1,0.4,1,1S52.6,13,52,13z"/>
	<path d="M31.5,40H0.8C0.3,40.7,0,41.6,0,42.6v11.8C0,56.9,2.1,59,4.6,59H35c-3.1-3.1-5-7.3-5-12C30,44.5,30.6,42.1,31.5,40z
		 M10.5,53C8,53,6,51,6,48.5S8,44,10.5,44s4.5,2,4.5,4.5S13,53,10.5,53z"/>
</g>
<g>
	<g>
		<polygon points="38.9,47.4 43.2,47.4 41.6,59.2 53.3,42 49.3,42 51,30.8 		"/>
	</g>
</g>
</svg>
