<?xml version="1.0" encoding="iso-8859-1"?>
<!-- Generator: Adobe Illustrator 19.0.0, SVG Export Plug-In . SVG Version: 6.00 Build 0)  -->
<svg version="1.1" id="Layer_1" xmlns="http://www.w3.org/2000/svg" xmlns:xlink="http://www.w3.org/1999/xlink" x="0px" y="0px"
	 viewBox="0 0 511.999 511.999" style="enable-background:new 0 0 511.999 511.999;" xml:space="preserve">
<g>
	<g>
		<g>
			<path d="M411.018,189.899c-40.465-55.391-94.586-85.896-152.391-85.896c-56.641,0-109.734,29.304-149.919,82.593v-81.367
				c3.185-1.845,5.333-5.281,5.333-9.227V37.329C114.039,16.747,97.292,0,76.705,0C56.12,0,39.374,16.747,39.374,37.329v58.672
				c0,3.944,2.147,7.38,5.329,9.225v279.954c0,0.015,0.002,0.029,0.002,0.044c-0.05,2.588-0.079,5.179-0.079,7.778
				c0,38.64,5.534,76.146,16.452,111.478c1.38,4.471,5.514,7.519,10.192,7.519h374.714c4.679,0,8.811-3.048,10.193-7.519
				c10.916-35.329,16.449-72.835,16.449-111.478C472.625,316.413,450.747,244.281,411.018,189.899z M60.708,85.334V37.329
				c0-8.82,7.178-15.995,15.999-15.995c8.822,0,15.998,7.175,15.998,15.995v48.005H60.708z M87.372,106.669v112.774
				c-8.261,14.828-15.393,30.594-21.335,47.105V106.669H87.372z M438.018,490.665H79.234c-8.811-31.081-13.273-63.895-13.273-97.662
				c0-2.542,0.031-5.071,0.081-7.596c0-0.004,0.001-0.006,0.001-0.009c0.016-0.806,0.045-1.611,0.065-2.417
				c0.027-1.008,0.048-2.019,0.083-3.025c0.035-1.036,0.085-2.067,0.129-3.1c0.046-1.06,0.091-2.123,0.146-3.181
				c0.047-0.927,0.1-1.852,0.155-2.776c0.077-1.285,0.158-2.567,0.247-3.846c0.048-0.698,0.094-1.396,0.146-2.092
				c3.021-40.114,12.44-77.622,26.818-110.507c0.026-0.059,0.051-0.118,0.076-0.177c0.715-1.631,1.444-3.246,2.184-4.855
				c0.627-1.358,1.265-2.711,1.91-4.057c0.068-0.146,0.137-0.291,0.206-0.437c2.855-5.93,5.889-11.732,9.107-17.391
				c0.057-0.1,0.097-0.208,0.15-0.31c35.316-62.023,89.949-101.891,151.161-101.891c106.236,0,192.663,120.073,192.663,267.666
				C451.291,426.771,446.828,459.586,438.018,490.665z"/>
			<path d="M322.626,233.332H194.627c-5.892,0-10.667,4.778-10.667,10.667v85.334c0,5.892,4.776,10.667,10.667,10.667h127.999
				c5.892,0,10.667-4.776,10.667-10.667V244C333.293,238.11,328.518,233.332,322.626,233.332z M311.959,318.667H205.294v-64h106.665
				V318.667z"/>
			<path d="M194.627,404h97.101c5.891,0,10.667-4.776,10.667-10.667c0-5.889-4.777-10.667-10.667-10.667h-97.101
				c-5.892,0-10.667,4.778-10.667,10.667C183.959,399.224,188.735,404,194.627,404z"/>
			<path d="M322.626,382.668h-0.254c-5.891,0-10.667,4.778-10.667,10.667c0,5.892,4.777,10.667,10.667,10.667h0.254
				c5.892,0,10.667-4.776,10.667-10.667C333.293,387.446,328.518,382.668,322.626,382.668z"/>
			<path d="M322.626,425.33H194.625c-5.892,0-10.667,4.778-10.667,10.667c0,5.892,4.776,10.667,10.667,10.667h128.001
				c5.892,0,10.667-4.776,10.667-10.667C333.293,430.107,328.518,425.33,322.626,425.33z"/>
			<path d="M258.626,63.331c5.892,0,10.667-4.775,10.667-10.667V10.667C269.294,4.777,264.518,0,258.626,0
				s-10.667,4.777-10.667,10.667v41.996C247.959,58.556,252.735,63.331,258.626,63.331z"/>
			<path d="M344.037,74.577c0.924,0.247,1.853,0.367,2.768,0.367c4.709,0,9.019-3.144,10.296-7.909l10.869-40.569
				c1.525-5.69-1.852-11.538-7.542-13.063c-5.688-1.53-11.54,1.852-13.065,7.542l-10.869,40.569
				C334.969,67.204,338.346,73.052,344.037,74.577z"/>
			<path d="M423.628,107.544c1.679,0.971,3.513,1.432,5.323,1.432c3.687,0,7.272-1.913,9.249-5.336l20.998-36.371
				c2.946-5.102,1.198-11.627-3.904-14.572c-5.101-2.946-11.625-1.198-14.572,3.904l-20.997,36.371
				C416.778,98.074,418.526,104.6,423.628,107.544z"/>
		</g>
	</g>
</g>
<g>
</g>
<g>
</g>
<g>
</g>
<g>
</g>
<g>
</g>
<g>
</g>
<g>
</g>
<g>
</g>
<g>
</g>
<g>
</g>
<g>
</g>
<g>
</g>
<g>
</g>
<g>
</g>
<g>
</g>
</svg>
