<?xml version="1.0" encoding="iso-8859-1"?>
<!-- Generator: Adobe Illustrator 19.0.0, SVG Export Plug-In . SVG Version: 6.00 Build 0)  -->
<svg version="1.1" id="Layer_1" xmlns="http://www.w3.org/2000/svg" xmlns:xlink="http://www.w3.org/1999/xlink" x="0px" y="0px"
	 viewBox="0 0 511.991 511.991" style="enable-background:new 0 0 511.991 511.991;" xml:space="preserve">
<g transform="translate(0 -1)">
	<g>
		<g>
			<path d="M503.458,239.938l-170.667-128c-6.443-4.885-15.104-5.632-22.336-2.027c-7.232,3.627-11.797,11.008-11.797,19.093v64
				h-85.333c-11.776,0-21.333,9.536-21.333,21.333v85.333c0,11.797,9.557,21.333,21.333,21.333h85.333v64
				c0,8.085,4.565,15.445,11.797,19.072c3.029,1.515,6.293,2.261,9.536,2.261c4.523,0,9.045-1.451,12.8-4.267l170.667-128
				c5.376-4.032,8.533-10.368,8.533-17.067C511.991,250.284,508.834,243.948,503.458,239.938z"/>
			<path d="M149.333,193C137.536,193,128,202.536,128,214.333v85.333c0,11.797,9.536,21.333,21.333,21.333
				s21.333-9.536,21.333-21.333v-85.333C170.667,202.536,161.131,193,149.333,193z"/>
			<path d="M85.333,193C73.536,193,64,202.536,64,214.333v85.333c0,11.797,9.536,21.333,21.333,21.333s21.333-9.536,21.333-21.333
				v-85.333C106.667,202.536,97.131,193,85.333,193z"/>
			<path d="M21.333,193C9.536,193,0,202.536,0,214.334v85.333C0,311.464,9.536,321,21.333,321s21.333-9.536,21.333-21.333v-85.333
				C42.667,202.536,33.131,193,21.333,193z"/>
		</g>
	</g>
</g>
<g>
</g>
<g>
</g>
<g>
</g>
<g>
</g>
<g>
</g>
<g>
</g>
<g>
</g>
<g>
</g>
<g>
</g>
<g>
</g>
<g>
</g>
<g>
</g>
<g>
</g>
<g>
</g>
<g>
</g>
</svg>
