<?xml version="1.0" encoding="iso-8859-1"?>
<!-- Generator: Adobe Illustrator 19.0.0, SVG Export Plug-In . SVG Version: 6.00 Build 0)  -->
<svg version="1.1" id="Layer_1" xmlns="http://www.w3.org/2000/svg" xmlns:xlink="http://www.w3.org/1999/xlink" x="0px" y="0px"
	 viewBox="0 0 512 512" style="enable-background:new 0 0 512 512;" xml:space="preserve">
<g>
	<g>
		<path d="M155.206,410.488c-13.904-23.791-29.697-42.675-30.363-43.467l-6.072-7.229l-6.073,7.229
			c-0.665,0.793-16.458,19.676-30.362,43.467c-19.603,33.542-25.35,59.547-17.08,77.293C72.744,503.851,90.749,512,118.771,512
			c28.022,0,46.027-8.149,53.516-24.219C180.556,470.036,174.809,444.03,155.206,410.488z M157.909,481.082
			c-4.655,9.991-17.823,15.057-39.139,15.057c-21.312,0-34.479-5.064-39.137-15.052c-5.763-12.361,0.022-34.53,16.293-62.419
			c8.112-13.905,17.099-26.281,22.867-33.812C136.98,408.575,168.786,457.741,157.909,481.082z"/>
	</g>
</g>
<g>
	<g>
		<path d="M117.039,442.545l-7.088-14.189C108.421,429.121,95,436.555,95,461.845h15.862c0-15.265,6.207-19.293,6.472-19.457
			C117.147,442.503,117.039,442.545,117.039,442.545z"/>
	</g>
</g>
<g>
	<g>
		<path d="M390.606,142.511v-15.84h-47.511V84.447h-26.383V47.532h52.777V0H205.841v47.532h52.787v36.915h-26.394v42.223h-47.501
			v15.84H73.894v147.787h-31.67v58.085h142.532v-58.085h-26.383v-36.926h26.362v15.84h205.872v-15.84h79.17V142.511H390.606z
			 M168.894,306.159v26.362H58.085v-26.362H168.894z M184.733,237.511h-42.222v52.787H89.755V158.372h94.978V237.511z
			 M295.596,15.862h58.032V31.67h-58.032V15.862z M300.851,47.532v36.915h-26.362V47.532H300.851z M221.702,31.67V15.862h58.032
			V31.67H221.702z M248.096,100.308h79.139v26.362h-79.139V100.308z M337.797,253.351H237.541v-58.032h100.256V253.351z
			 M374.744,245.441v7.91h-21.085v-73.894H221.681v73.894h-21.085V142.532h174.148V245.441z M453.915,237.511h-63.309v-79.139
			h63.309V237.511z"/>
	</g>
</g>
<g>
	<g>
		<rect x="250.718" y="216.404" width="36.947" height="15.862"/>
	</g>
</g>
<g>
	<g>
		<rect x="303.505" y="216.404" width="21.106" height="15.862"/>
	</g>
</g>
<g>
</g>
<g>
</g>
<g>
</g>
<g>
</g>
<g>
</g>
<g>
</g>
<g>
</g>
<g>
</g>
<g>
</g>
<g>
</g>
<g>
</g>
<g>
</g>
<g>
</g>
<g>
</g>
<g>
</g>
</svg>
